<?xml version="1.0" standalone="no"?>
<!DOCTYPE svg PUBLIC "-//W3C//DTD SVG 20010904//EN"
 "http://www.w3.org/TR/2001/REC-SVG-20010904/DTD/svg10.dtd">
<svg version="1.0" xmlns="http://www.w3.org/2000/svg"
 width="512.000000pt" height="512.000000pt" viewBox="0 0 512.000000 512.000000"
 preserveAspectRatio="xMidYMid meet">

<g transform="translate(0.000000,512.000000) scale(0.100000,-0.100000)"
fill="#8812FC" stroke="none">
<path d="M1032 4539 c-173 -22 -327 -153 -390 -332 -24 -68 -25 -84 -28 -317
-5 -434 -47 -679 -155 -898 -84 -172 -197 -272 -344 -302 l-55 -11 0 -124 0
-124 53 -10 c221 -46 381 -265 451 -616 34 -171 47 -323 50 -575 3 -243 4
-258 28 -327 65 -183 216 -309 399 -333 101 -13 2951 -13 3044 0 149 21 299
129 365 263 49 100 60 175 60 417 0 514 90 860 271 1042 72 73 138 110 227
129 l52 10 0 124 0 124 -52 10 c-177 37 -318 187 -397 420 -68 199 -92 373
-101 736 -7 289 -8 303 -33 369 -68 183 -214 302 -397 326 -92 12 -2956 11
-3048 -1z m1862 -952 c113 -34 187 -76 262 -151 75 -76 104 -125 129 -221 40
-155 -2 -327 -108 -443 -55 -59 -144 -117 -207 -133 -28 -7 -50 -16 -50 -19 0
-4 28 -12 63 -18 92 -17 211 -80 280 -148 130 -129 178 -341 121 -535 -56
-190 -210 -328 -439 -391 -77 -22 -99 -22 -612 -26 l-533 -3 0 1056 0 1056
518 -3 c457 -3 524 -6 576 -21z"/>
<path d="M2132 3028 l3 -313 250 0 c204 1 262 4 314 18 185 50 267 153 260
325 -7 138 -71 220 -205 262 -60 18 -93 20 -345 20 l-279 0 2 -312z"/>
<path d="M2130 2115 l0 -345 289 0 c158 0 310 4 337 9 133 25 218 80 269 172
28 51 30 61 30 164 0 103 -2 113 -30 164 -50 90 -147 148 -287 171 -35 5 -186
10 -335 10 l-273 0 0 -345z"/>
</g>
</svg>
