<?xml version="1.0" encoding="UTF-8"?>
<!DOCTYPE svg PUBLIC "-//W3C//DTD SVG 1.1//EN" "http://www.w3.org/Graphics/SVG/1.1/DTD/svg11.dtd">
<svg xmlns="http://www.w3.org/2000/svg" version="1.1" width="512px" height="512px" style="shape-rendering:geometricPrecision; text-rendering:geometricPrecision; image-rendering:optimizeQuality; fill-rule:evenodd; clip-rule:evenodd" xmlns:xlink="http://www.w3.org/1999/xlink">
<g><path style="opacity:0.012" fill="#EA5622" d="M 65.5,40.5 C 191.999,39.334 318.666,39.1673 445.5,40C 318.834,40.5 192.167,40.6667 65.5,40.5 Z"/></g>
<g><path style="opacity:0.97" fill="#EA5622" d="M 458.5,48.5 C 458.427,50.0269 459.094,51.0269 460.5,51.5C 463.315,58.215 464.149,65.215 463,72.5C 452.331,192.859 441.498,313.193 430.5,433.5C 429.662,433.842 429.328,434.508 429.5,435.5C 428.662,435.842 428.328,436.508 428.5,437.5C 427.662,437.842 427.328,438.508 427.5,439.5C 426.833,439.5 426.5,439.833 426.5,440.5C 425.833,440.5 425.5,440.833 425.5,441.5C 424.833,441.5 424.5,441.833 424.5,442.5C 423.833,442.5 423.5,442.833 423.5,443.5C 421.973,443.427 420.973,444.094 420.5,445.5C 419.508,445.328 418.842,445.662 418.5,446.5C 417.508,446.328 416.842,446.662 416.5,447.5C 413.848,447.41 411.515,448.076 409.5,449.5C 407.901,449.232 406.568,449.566 405.5,450.5C 404.209,450.263 403.209,450.596 402.5,451.5C 400.901,451.232 399.568,451.566 398.5,452.5C 395.848,452.41 393.515,453.076 391.5,454.5C 387.521,454.742 383.854,455.742 380.5,457.5C 377.848,457.41 375.515,458.076 373.5,459.5C 371.901,459.232 370.568,459.566 369.5,460.5C 366.848,460.41 364.515,461.076 362.5,462.5C 359.848,462.41 357.515,463.076 355.5,464.5C 353.901,464.232 352.568,464.566 351.5,465.5C 348.848,465.41 346.515,466.076 344.5,467.5C 341.848,467.41 339.515,468.076 337.5,469.5C 335.901,469.232 334.568,469.566 333.5,470.5C 330.848,470.41 328.515,471.076 326.5,472.5C 322.521,472.742 318.854,473.742 315.5,475.5C 312.848,475.41 310.515,476.076 308.5,477.5C 306.901,477.232 305.568,477.566 304.5,478.5C 301.848,478.41 299.515,479.076 297.5,480.5C 294.848,480.41 292.515,481.076 290.5,482.5C 288.901,482.232 287.568,482.566 286.5,483.5C 283.848,483.41 281.515,484.076 279.5,485.5C 276.848,485.41 274.515,486.076 272.5,487.5C 270.901,487.232 269.568,487.566 268.5,488.5C 265.848,488.41 263.515,489.076 261.5,490.5C 257.5,490.5 253.5,490.5 249.5,490.5C 248.432,489.566 247.099,489.232 245.5,489.5C 243.485,488.076 241.152,487.41 238.5,487.5C 236.485,486.076 234.152,485.41 231.5,485.5C 230.432,484.566 229.099,484.232 227.5,484.5C 225.485,483.076 223.152,482.41 220.5,482.5C 218.485,481.076 216.152,480.41 213.5,480.5C 212.432,479.566 211.099,479.232 209.5,479.5C 207.485,478.076 205.152,477.41 202.5,477.5C 200.485,476.076 198.152,475.41 195.5,475.5C 194.432,474.566 193.099,474.232 191.5,474.5C 189.485,473.076 187.152,472.41 184.5,472.5C 182.485,471.076 180.152,470.41 177.5,470.5C 176.432,469.566 175.099,469.232 173.5,469.5C 171.485,468.076 169.152,467.41 166.5,467.5C 164.485,466.076 162.152,465.41 159.5,465.5C 158.432,464.566 157.099,464.232 155.5,464.5C 153.485,463.076 151.152,462.41 148.5,462.5C 146.485,461.076 144.152,460.41 141.5,460.5C 140.432,459.566 139.099,459.232 137.5,459.5C 135.485,458.076 133.152,457.41 130.5,457.5C 128.485,456.076 126.152,455.41 123.5,455.5C 122.432,454.566 121.099,454.232 119.5,454.5C 117.485,453.076 115.152,452.41 112.5,452.5C 110.485,451.076 108.152,450.41 105.5,450.5C 104.432,449.566 103.099,449.232 101.5,449.5C 99.4855,448.076 97.1522,447.41 94.5,447.5C 92.3374,445.917 90.0041,444.584 87.5,443.5C 81.3128,436.785 78.4795,428.785 79,419.5C 68.6667,303.833 58.3333,188.167 48,72.5C 46.8515,65.215 47.6848,58.215 50.5,51.5C 54.1643,47.0267 58.8309,43.86 64.5,42C 191.833,41.3333 319.167,41.3333 446.5,42C 450.975,43.4021 454.975,45.5688 458.5,48.5 Z M 385.5,409.5 C 384.432,410.434 383.099,410.768 381.5,410.5C 379.485,411.924 377.152,412.59 374.5,412.5C 373.432,413.434 372.099,413.768 370.5,413.5C 368.485,414.924 366.152,415.59 363.5,415.5C 361.485,416.924 359.152,417.59 356.5,417.5C 355.432,418.434 354.099,418.768 352.5,418.5C 350.485,419.924 348.152,420.59 345.5,420.5C 343.485,421.924 341.152,422.59 338.5,422.5C 337.432,423.434 336.099,423.768 334.5,423.5C 332.485,424.924 330.152,425.59 327.5,425.5C 325.485,426.924 323.152,427.59 320.5,427.5C 319.432,428.434 318.099,428.768 316.5,428.5C 314.485,429.924 312.152,430.59 309.5,430.5C 308.432,431.434 307.099,431.768 305.5,431.5C 303.485,432.924 301.152,433.59 298.5,433.5C 296.485,434.924 294.152,435.59 291.5,435.5C 290.432,436.434 289.099,436.768 287.5,436.5C 285.485,437.924 283.152,438.59 280.5,438.5C 278.485,439.924 276.152,440.59 273.5,440.5C 272.432,441.434 271.099,441.768 269.5,441.5C 267.485,442.924 265.152,443.59 262.5,443.5C 258.956,445.569 255.29,445.902 251.5,444.5C 248.848,444.59 246.515,443.924 244.5,442.5C 241.848,442.59 239.515,441.924 237.5,440.5C 235.901,440.768 234.568,440.434 233.5,439.5C 230.848,439.59 228.515,438.924 226.5,437.5C 223.848,437.59 221.515,436.924 219.5,435.5C 217.901,435.768 216.568,435.434 215.5,434.5C 216.552,434.649 217.552,434.483 218.5,434C 217,433.5 215.5,433 214,432.5C 213.235,432.57 212.735,432.903 212.5,433.5C 210.901,433.768 209.568,433.434 208.5,432.5C 205.848,432.59 203.515,431.924 201.5,430.5C 199.901,430.768 198.568,430.434 197.5,429.5C 194.848,429.59 192.515,428.924 190.5,427.5C 187.848,427.59 185.515,426.924 183.5,425.5C 181.901,425.768 180.568,425.434 179.5,424.5C 180.552,424.649 181.552,424.483 182.5,424C 181,423.5 179.5,423 178,422.5C 177.235,422.57 176.735,422.903 176.5,423.5C 174.901,423.768 173.568,423.434 172.5,422.5C 169.848,422.59 167.515,421.924 165.5,420.5C 163.901,420.768 162.568,420.434 161.5,419.5C 162.552,419.649 163.552,419.483 164.5,419C 163,418.5 161.5,418 160,417.5C 159.235,417.57 158.735,417.903 158.5,418.5C 156.901,418.768 155.568,418.434 154.5,417.5C 151.848,417.59 149.515,416.924 147.5,415.5C 145.901,415.768 144.568,415.434 143.5,414.5C 144.552,414.649 145.552,414.483 146.5,414C 145,413.5 143.5,413 142,412.5C 141.235,412.57 140.735,412.903 140.5,413.5C 138.901,413.768 137.568,413.434 136.5,412.5C 133.848,412.59 131.515,411.924 129.5,410.5C 127.139,410.326 124.806,409.993 122.5,409.5C 112.594,301.532 102.927,193.532 93.5,85.5C 201.5,85.5 309.5,85.5 417.5,85.5C 408.073,193.531 398.406,301.531 388.5,409.5C 387.5,409.5 386.5,409.5 385.5,409.5 Z M 160.5,345.5 C 161.167,345.5 161.833,345.5 162.5,345.5C 162.167,346.5 161.5,347.167 160.5,347.5C 160.5,346.833 160.5,346.167 160.5,345.5 Z M 158.5,374.5 C 159.906,374.973 160.573,375.973 160.5,377.5C 160.167,377.5 159.833,377.5 159.5,377.5C 159.5,376.833 159.167,376.5 158.5,376.5C 158.5,375.833 158.5,375.167 158.5,374.5 Z M 161.5,379.5 C 161.5,379.167 161.5,378.833 161.5,378.5C 163.027,378.427 164.027,379.094 164.5,380.5C 163.833,380.5 163.167,380.5 162.5,380.5C 162.5,379.833 162.167,379.5 161.5,379.5 Z"/></g>
<g><path style="opacity:0.008" fill="#FFFFFF" d="M 459.5,48.5 C 458.833,47.1667 458.833,47.1667 459.5,48.5 Z"/></g>
<g><path style="opacity:0.008" fill="#FFFFFF" d="M 50.5,48.5 C 51.8333,49.1667 51.8333,49.1667 50.5,48.5 Z"/></g>
<g><path style="opacity:0.008" fill="#FFFFFF" d="M 459.5,48.5 C 460.833,49.1667 460.833,49.1667 459.5,48.5 Z"/></g>
<g><path style="opacity:0.012" fill="#FFFFFF" d="M 50.5,51.5 C 49.8333,50.1667 49.8333,50.1667 50.5,51.5 Z"/></g>
<g><path style="opacity:0.012" fill="#FFFFFF" d="M 461.5,51.5 C 460.833,50.1667 460.833,50.1667 461.5,51.5 Z"/></g>
<g><path style="opacity:0.008" fill="#FFFFFF" d="M 49.5,51.5 C 48.8333,52.1667 48.8333,52.1667 49.5,51.5 Z"/></g>
<g><path style="opacity:0.008" fill="#FFFFFF" d="M 461.5,51.5 C 462.833,52.1667 462.833,52.1667 461.5,51.5 Z"/></g>
<g><path style="opacity:0.012" fill="#FFFFFF" d="M 47.5,53.5 C 48.8333,54.1667 48.8333,54.1667 47.5,53.5 Z"/></g>
<g><path style="opacity:0.012" fill="#FFFFFF" d="M 462.5,53.5 C 463.833,54.1667 463.833,54.1667 462.5,53.5 Z"/></g>
<g><path style="opacity:0.01" fill="#FFFFFF" d="M 46.5,55.5 C 47.525,55.8966 47.6917,56.5632 47,57.5C 46.5357,56.9056 46.369,56.2389 46.5,55.5 Z"/></g>
<g><path style="opacity:0.01" fill="#FFFFFF" d="M 463.5,55.5 C 464.525,55.8966 464.692,56.5632 464,57.5C 463.536,56.9056 463.369,56.2389 463.5,55.5 Z"/></g>
<g><path style="opacity:0.011" fill="#FFFFFF" d="M 45.5,58.5 C 46.6453,62.3112 46.8119,66.3112 46,70.5C 45.5012,66.5138 45.3345,62.5138 45.5,58.5 Z"/></g>
<g><path style="opacity:0.011" fill="#FFFFFF" d="M 464.5,58.5 C 465.645,62.3112 465.812,66.3112 465,70.5C 464.501,66.5138 464.334,62.5138 464.5,58.5 Z"/></g>
<g><path style="opacity:0.009" fill="#FFFFFF" d="M 463.5,73.5 C 464.638,76.3035 464.805,79.3035 464,82.5C 463.502,79.5184 463.335,76.5184 463.5,73.5 Z"/></g>
<g><path style="opacity:0.01" fill="#FFFFFF" d="M 46.5,74.5 C 47.6341,76.9664 47.8007,79.633 47,82.5C 46.5026,79.854 46.3359,77.1873 46.5,74.5 Z"/></g>
<g><path style="opacity:0.009" fill="#FFFFFF" d="M 47.5,85.5 C 48.6341,87.9664 48.8007,90.633 48,93.5C 47.5026,90.854 47.3359,88.1873 47.5,85.5 Z"/></g>
<g><path style="opacity:0.009" fill="#FFFFFF" d="M 462.5,85.5 C 463.634,87.9664 463.801,90.633 463,93.5C 462.503,90.854 462.336,88.1873 462.5,85.5 Z"/></g>
<g><path style="opacity:0.012" fill="#FFFFFF" d="M 94.5,86.5 C 201.833,86.5 309.167,86.5 416.5,86.5C 416.336,92.1667 416.003,92.5 415.5,87.5C 308.833,87.5 202.167,87.5 95.5,87.5C 94.9969,92.5 94.6636,92.1667 94.5,86.5 Z"/></g>
<g><path style="opacity:0.009" fill="#FFFFFF" d="M 48.5,96.5 C 49.6341,98.9664 49.8007,101.633 49,104.5C 48.5026,101.854 48.3359,99.1873 48.5,96.5 Z"/></g>
<g><path style="opacity:0.009" fill="#FFFFFF" d="M 461.5,96.5 C 462.634,98.9664 462.801,101.633 462,104.5C 461.503,101.854 461.336,99.1873 461.5,96.5 Z"/></g>
<g><path style="opacity:0.01" fill="#FFFFFF" d="M 49.5,107.5 C 50.6341,109.966 50.8007,112.633 50,115.5C 49.5026,112.854 49.3359,110.187 49.5,107.5 Z"/></g>
<g><path style="opacity:0.01" fill="#FFFFFF" d="M 460.5,107.5 C 461.634,109.966 461.801,112.633 461,115.5C 460.503,112.854 460.336,110.187 460.5,107.5 Z"/></g>
<g><path style="opacity:0.009" fill="#FFFFFF" d="M 50.5,118.5 C 51.6341,120.966 51.8007,123.633 51,126.5C 50.5026,123.854 50.3359,121.187 50.5,118.5 Z"/></g>
<g><path style="opacity:0.01" fill="#FFFFFF" d="M 459.5,118.5 C 460.634,120.966 460.801,123.633 460,126.5C 459.503,123.854 459.336,121.187 459.5,118.5 Z"/></g>
<g><path style="opacity:0.964" fill="#FFFFFF" d="M 152.5,126.5 C 218.5,126.5 284.5,126.5 350.5,126.5C 351.568,127.434 352.901,127.768 354.5,127.5C 355.514,128.674 356.847,129.34 358.5,129.5C 363.69,133.017 367.356,137.684 369.5,143.5C 369.5,147.167 369.5,150.833 369.5,154.5C 368.596,155.209 368.263,156.209 368.5,157.5C 367.662,157.842 367.328,158.508 367.5,159.5C 363.925,164.613 359.259,168.28 353.5,170.5C 295.499,170.333 237.499,170.5 179.5,171C 182.123,191.059 184.123,211.226 185.5,231.5C 237.168,231.333 288.834,231.5 340.5,232C 289.167,232.333 237.833,232.667 186.5,233C 238.166,233.5 289.832,233.667 341.5,233.5C 343.649,234.736 345.982,235.736 348.5,236.5C 350.475,238.137 352.475,239.804 354.5,241.5C 354.427,243.027 355.094,244.027 356.5,244.5C 356.328,245.492 356.662,246.158 357.5,246.5C 358.546,253.13 358.713,259.797 358,266.5C 354.631,300.857 351.131,335.191 347.5,369.5C 345.672,373.146 343.338,376.479 340.5,379.5C 338.973,379.427 337.973,380.094 337.5,381.5C 335.847,381.66 334.514,382.326 333.5,383.5C 332.209,383.263 331.209,383.596 330.5,384.5C 329.209,384.263 328.209,384.596 327.5,385.5C 325.447,385.402 323.78,386.069 322.5,387.5C 321.209,387.263 320.209,387.596 319.5,388.5C 318.209,388.263 317.209,388.596 316.5,389.5C 315.209,389.263 314.209,389.596 313.5,390.5C 311.447,390.402 309.78,391.069 308.5,392.5C 307.209,392.263 306.209,392.596 305.5,393.5C 304.209,393.263 303.209,393.596 302.5,394.5C 301.209,394.263 300.209,394.596 299.5,395.5C 297.447,395.402 295.78,396.069 294.5,397.5C 293.209,397.263 292.209,397.596 291.5,398.5C 290.209,398.263 289.209,398.596 288.5,399.5C 287.209,399.263 286.209,399.596 285.5,400.5C 283.447,400.402 281.78,401.069 280.5,402.5C 279.209,402.263 278.209,402.596 277.5,403.5C 276.209,403.263 275.209,403.596 274.5,404.5C 273.209,404.263 272.209,404.596 271.5,405.5C 269.447,405.402 267.78,406.069 266.5,407.5C 265.209,407.263 264.209,407.596 263.5,408.5C 262.209,408.263 261.209,408.596 260.5,409.5C 259.209,409.263 258.209,409.596 257.5,410.5C 253.5,410.5 249.5,410.5 245.5,410.5C 244.791,409.596 243.791,409.263 242.5,409.5C 241.22,408.069 239.553,407.402 237.5,407.5C 236.791,406.596 235.791,406.263 234.5,406.5C 233.791,405.596 232.791,405.263 231.5,405.5C 230.791,404.596 229.791,404.263 228.5,404.5C 227.22,403.069 225.553,402.402 223.5,402.5C 222.791,401.596 221.791,401.263 220.5,401.5C 219.791,400.596 218.791,400.263 217.5,400.5C 216.791,399.596 215.791,399.263 214.5,399.5C 213.22,398.069 211.553,397.402 209.5,397.5C 208.791,396.596 207.791,396.263 206.5,396.5C 205.791,395.596 204.791,395.263 203.5,395.5C 202.791,394.596 201.791,394.263 200.5,394.5C 199.22,393.069 197.553,392.402 195.5,392.5C 194.791,391.596 193.791,391.263 192.5,391.5C 191.791,390.596 190.791,390.263 189.5,390.5C 188.791,389.596 187.791,389.263 186.5,389.5C 185.22,388.069 183.553,387.402 181.5,387.5C 180.791,386.596 179.791,386.263 178.5,386.5C 177.791,385.596 176.791,385.263 175.5,385.5C 174.791,384.596 173.791,384.263 172.5,384.5C 171.22,383.069 169.553,382.402 167.5,382.5C 166.71,381.599 165.71,380.932 164.5,380.5C 164.027,379.094 163.027,378.427 161.5,378.5C 161.5,377.833 161.167,377.5 160.5,377.5C 160.573,375.973 159.906,374.973 158.5,374.5C 158.068,373.29 157.401,372.29 156.5,371.5C 156.737,370.209 156.404,369.209 155.5,368.5C 154.167,364.167 154.167,359.833 155.5,355.5C 156.674,354.486 157.34,353.153 157.5,351.5C 158.488,350.205 159.488,348.872 160.5,347.5C 161.5,347.167 162.167,346.5 162.5,345.5C 164.537,344.154 166.537,342.82 168.5,341.5C 175.262,340.024 181.928,340.357 188.5,342.5C 189.209,343.404 190.209,343.737 191.5,343.5C 192.209,344.404 193.209,344.737 194.5,344.5C 195.209,345.404 196.209,345.737 197.5,345.5C 198.78,346.931 200.447,347.598 202.5,347.5C 203.209,348.404 204.209,348.737 205.5,348.5C 206.209,349.404 207.209,349.737 208.5,349.5C 209.209,350.404 210.209,350.737 211.5,350.5C 212.78,351.931 214.447,352.598 216.5,352.5C 217.209,353.404 218.209,353.737 219.5,353.5C 220.209,354.404 221.209,354.737 222.5,354.5C 223.209,355.404 224.209,355.737 225.5,355.5C 226.78,356.931 228.447,357.598 230.5,357.5C 231.209,358.404 232.209,358.737 233.5,358.5C 234.209,359.404 235.209,359.737 236.5,359.5C 237.209,360.404 238.209,360.737 239.5,360.5C 240.78,361.931 242.447,362.598 244.5,362.5C 245.209,363.404 246.209,363.737 247.5,363.5C 248.209,364.404 249.209,364.737 250.5,364.5C 252.338,365.678 254.005,365.345 255.5,363.5C 256.791,363.737 257.791,363.404 258.5,362.5C 259.791,362.737 260.791,362.404 261.5,361.5C 262.791,361.737 263.791,361.404 264.5,360.5C 266.553,360.598 268.22,359.931 269.5,358.5C 270.791,358.737 271.791,358.404 272.5,357.5C 273.791,357.737 274.791,357.404 275.5,356.5C 276.791,356.737 277.791,356.404 278.5,355.5C 280.553,355.598 282.22,354.931 283.5,353.5C 284.791,353.737 285.791,353.404 286.5,352.5C 287.791,352.737 288.791,352.404 289.5,351.5C 290.791,351.737 291.791,351.404 292.5,350.5C 294.553,350.598 296.22,349.931 297.5,348.5C 298.791,348.737 299.791,348.404 300.5,347.5C 301.791,347.737 302.791,347.404 303.5,346.5C 306.167,346.167 306.167,345.833 303.5,345.5C 304.209,344.596 305.209,344.263 306.5,344.5C 308.302,322.149 310.302,299.816 312.5,277.5C 262.167,277.5 211.833,277.5 161.5,277.5C 154.127,275.149 148.794,270.483 145.5,263.5C 141.238,225.544 137.238,187.544 133.5,149.5C 133.837,146.824 134.17,144.157 134.5,141.5C 136.42,137.34 139.087,133.673 142.5,130.5C 143.492,130.672 144.158,130.338 144.5,129.5C 146.153,129.34 147.486,128.674 148.5,127.5C 150.099,127.768 151.432,127.434 152.5,126.5 Z"/></g>
<g><path style="opacity:0.009" fill="#FFFFFF" d="M 51.5,129.5 C 52.6341,131.966 52.8007,134.633 52,137.5C 51.5026,134.854 51.3359,132.187 51.5,129.5 Z"/></g>
<g><path style="opacity:0.009" fill="#FFFFFF" d="M 458.5,129.5 C 459.634,131.966 459.801,134.633 459,137.5C 458.503,134.854 458.336,132.187 458.5,129.5 Z"/></g>
<g><path style="opacity:0.009" fill="#FFFFFF" d="M 52.5,141.5 C 53.6341,143.966 53.8007,146.633 53,149.5C 52.5026,146.854 52.3359,144.187 52.5,141.5 Z"/></g>
<g><path style="opacity:0.01" fill="#FFFFFF" d="M 457.5,141.5 C 458.634,143.966 458.801,146.633 458,149.5C 457.503,146.854 457.336,144.187 457.5,141.5 Z"/></g>
<g><path style="opacity:0.009" fill="#FFFFFF" d="M 53.5,152.5 C 54.6341,154.966 54.8007,157.633 54,160.5C 53.5026,157.854 53.3359,155.187 53.5,152.5 Z"/></g>
<g><path style="opacity:0.009" fill="#FFFFFF" d="M 456.5,152.5 C 457.634,154.966 457.801,157.633 457,160.5C 456.503,157.854 456.336,155.187 456.5,152.5 Z"/></g>
<g><path style="opacity:0.009" fill="#FFFFFF" d="M 54.5,163.5 C 55.6341,165.966 55.8007,168.633 55,171.5C 54.5026,168.854 54.3359,166.187 54.5,163.5 Z"/></g>
<g><path style="opacity:0.009" fill="#FFFFFF" d="M 455.5,163.5 C 456.634,165.966 456.801,168.633 456,171.5C 455.503,168.854 455.336,166.187 455.5,163.5 Z"/></g>
<g><path style="opacity:0.004" fill="#FFFFFF" d="M 181.5,171.5 C 238.501,171.333 295.501,171.5 352.5,172C 295.834,172.5 239.168,172.667 182.5,172.5C 182.664,175.187 182.497,177.854 182,180.5C 181.502,177.518 181.335,174.518 181.5,171.5 Z"/></g>
<g><path style="opacity:0.01" fill="#FFFFFF" d="M 55.5,174.5 C 56.6341,176.966 56.8007,179.633 56,182.5C 55.5026,179.854 55.3359,177.187 55.5,174.5 Z"/></g>
<g><path style="opacity:0.01" fill="#FFFFFF" d="M 454.5,174.5 C 455.634,176.966 455.801,179.633 455,182.5C 454.503,179.854 454.336,177.187 454.5,174.5 Z"/></g>
<g><path style="opacity:0.009" fill="#FFFFFF" d="M 56.5,185.5 C 57.6341,187.966 57.8007,190.633 57,193.5C 56.5026,190.854 56.3359,188.187 56.5,185.5 Z"/></g>
<g><path style="opacity:0.009" fill="#FFFFFF" d="M 453.5,185.5 C 454.634,187.966 454.801,190.633 454,193.5C 453.503,190.854 453.336,188.187 453.5,185.5 Z"/></g>
<g><path style="opacity:0.01" fill="#FFFFFF" d="M 57.5,197.5 C 58.6341,199.966 58.8007,202.633 58,205.5C 57.5026,202.854 57.3359,200.187 57.5,197.5 Z"/></g>
<g><path style="opacity:0.01" fill="#FFFFFF" d="M 452.5,197.5 C 453.634,199.966 453.801,202.633 453,205.5C 452.503,202.854 452.336,200.187 452.5,197.5 Z"/></g>
<g><path style="opacity:0.009" fill="#FFFFFF" d="M 58.5,208.5 C 59.6341,210.966 59.8007,213.633 59,216.5C 58.5026,213.854 58.3359,211.187 58.5,208.5 Z"/></g>
<g><path style="opacity:0.009" fill="#FFFFFF" d="M 451.5,208.5 C 452.634,210.966 452.801,213.633 452,216.5C 451.503,213.854 451.336,211.187 451.5,208.5 Z"/></g>
<g><path style="opacity:0.009" fill="#FFFFFF" d="M 59.5,219.5 C 60.6341,221.966 60.8007,224.633 60,227.5C 59.5026,224.854 59.3359,222.187 59.5,219.5 Z"/></g>
<g><path style="opacity:0.009" fill="#FFFFFF" d="M 450.5,219.5 C 451.634,221.966 451.801,224.633 451,227.5C 450.503,224.854 450.336,222.187 450.5,219.5 Z"/></g>
<g><path style="opacity:0.01" fill="#FFFFFF" d="M 60.5,230.5 C 61.6341,232.966 61.8007,235.633 61,238.5C 60.5026,235.854 60.3359,233.187 60.5,230.5 Z"/></g>
<g><path style="opacity:0.01" fill="#FFFFFF" d="M 449.5,230.5 C 450.634,232.966 450.801,235.633 450,238.5C 449.503,235.854 449.336,233.187 449.5,230.5 Z"/></g>
<g><path style="opacity:0.009" fill="#FFFFFF" d="M 61.5,241.5 C 62.6341,243.966 62.8007,246.633 62,249.5C 61.5026,246.854 61.3359,244.187 61.5,241.5 Z"/></g>
<g><path style="opacity:0.009" fill="#FFFFFF" d="M 448.5,241.5 C 449.634,243.966 449.801,246.633 449,249.5C 448.503,246.854 448.336,244.187 448.5,241.5 Z"/></g>
<g><path style="opacity:0.01" fill="#FFFFFF" d="M 62.5,252.5 C 63.6341,254.966 63.8007,257.633 63,260.5C 62.5026,257.854 62.3359,255.187 62.5,252.5 Z"/></g>
<g><path style="opacity:0.009" fill="#FFFFFF" d="M 447.5,252.5 C 448.634,254.966 448.801,257.633 448,260.5C 447.503,257.854 447.336,255.187 447.5,252.5 Z"/></g>
<g><path style="opacity:0.009" fill="#FFFFFF" d="M 63.5,264.5 C 64.6341,266.966 64.8007,269.633 64,272.5C 63.5026,269.854 63.3359,267.187 63.5,264.5 Z"/></g>
<g><path style="opacity:0.009" fill="#FFFFFF" d="M 446.5,264.5 C 447.634,266.966 447.801,269.633 447,272.5C 446.503,269.854 446.336,267.187 446.5,264.5 Z"/></g>
<g><path style="opacity:0.009" fill="#FFFFFF" d="M 64.5,275.5 C 65.6341,277.966 65.8007,280.633 65,283.5C 64.5026,280.854 64.3359,278.187 64.5,275.5 Z"/></g>
<g><path style="opacity:0.009" fill="#FFFFFF" d="M 445.5,275.5 C 446.634,277.966 446.801,280.633 446,283.5C 445.503,280.854 445.336,278.187 445.5,275.5 Z"/></g>
<g><path style="opacity:0.012" fill="#FFFFFF" d="M 162.5,279.5 C 211.997,278.501 261.664,278.168 311.5,278.5C 311.336,284.167 311.003,284.5 310.5,279.5C 261.167,279.5 211.833,279.5 162.5,279.5 Z"/></g>
<g><path style="opacity:0.01" fill="#FFFFFF" d="M 65.5,286.5 C 66.6341,288.966 66.8007,291.633 66,294.5C 65.5026,291.854 65.3359,289.187 65.5,286.5 Z"/></g>
<g><path style="opacity:0.009" fill="#FFFFFF" d="M 444.5,286.5 C 445.634,288.966 445.801,291.633 445,294.5C 444.503,291.854 444.336,289.187 444.5,286.5 Z"/></g>
<g><path style="opacity:0.01" fill="#FFFFFF" d="M 66.5,297.5 C 67.6341,299.966 67.8007,302.633 67,305.5C 66.5026,302.854 66.3359,300.187 66.5,297.5 Z"/></g>
<g><path style="opacity:0.01" fill="#FFFFFF" d="M 443.5,297.5 C 444.634,299.966 444.801,302.633 444,305.5C 443.503,302.854 443.336,300.187 443.5,297.5 Z"/></g>
<g><path style="opacity:0.009" fill="#FFFFFF" d="M 67.5,308.5 C 68.6341,310.966 68.8007,313.633 68,316.5C 67.5026,313.854 67.3359,311.187 67.5,308.5 Z"/></g>
<g><path style="opacity:0.009" fill="#FFFFFF" d="M 442.5,308.5 C 443.634,310.966 443.801,313.633 443,316.5C 442.503,313.854 442.336,311.187 442.5,308.5 Z"/></g>
<g><path style="opacity:0.01" fill="#FFFFFF" d="M 68.5,320.5 C 69.6341,322.966 69.8007,325.633 69,328.5C 68.5026,325.854 68.3359,323.187 68.5,320.5 Z"/></g>
<g><path style="opacity:0.01" fill="#FFFFFF" d="M 441.5,320.5 C 442.634,322.966 442.801,325.633 442,328.5C 441.503,325.854 441.336,323.187 441.5,320.5 Z"/></g>
<g><path style="opacity:0.009" fill="#FFFFFF" d="M 69.5,331.5 C 70.6341,333.966 70.8007,336.633 70,339.5C 69.5026,336.854 69.3359,334.187 69.5,331.5 Z"/></g>
<g><path style="opacity:0.009" fill="#FFFFFF" d="M 440.5,331.5 C 441.634,333.966 441.801,336.633 441,339.5C 440.503,336.854 440.336,334.187 440.5,331.5 Z"/></g>
<g><path style="opacity:0.009" fill="#FFFFFF" d="M 70.5,342.5 C 71.6341,344.966 71.8007,347.633 71,350.5C 70.5026,347.854 70.3359,345.187 70.5,342.5 Z"/></g>
<g><path style="opacity:0.009" fill="#FFFFFF" d="M 439.5,342.5 C 440.634,344.966 440.801,347.633 440,350.5C 439.503,347.854 439.336,345.187 439.5,342.5 Z"/></g>
<g><path style="opacity:0.01" fill="#FFFFFF" d="M 71.5,353.5 C 72.6341,355.966 72.8007,358.633 72,361.5C 71.5026,358.854 71.3359,356.187 71.5,353.5 Z"/></g>
<g><path style="opacity:0.01" fill="#FFFFFF" d="M 438.5,353.5 C 439.634,355.966 439.801,358.633 439,361.5C 438.503,358.854 438.336,356.187 438.5,353.5 Z"/></g>
<g><path style="opacity:0.009" fill="#FFFFFF" d="M 72.5,364.5 C 73.6341,366.966 73.8007,369.633 73,372.5C 72.5026,369.854 72.3359,367.187 72.5,364.5 Z"/></g>
<g><path style="opacity:0.009" fill="#FFFFFF" d="M 437.5,364.5 C 438.634,366.966 438.801,369.633 438,372.5C 437.503,369.854 437.336,367.187 437.5,364.5 Z"/></g>
<g><path style="opacity:0.009" fill="#FFFFFF" d="M 73.5,375.5 C 74.6378,378.304 74.8045,381.304 74,384.5C 73.502,381.518 73.3354,378.518 73.5,375.5 Z"/></g>
<g><path style="opacity:0.01" fill="#FFFFFF" d="M 436.5,375.5 C 437.634,377.966 437.801,380.633 437,383.5C 436.503,380.854 436.336,378.187 436.5,375.5 Z"/></g>
<g><path style="opacity:0.009" fill="#FFFFFF" d="M 74.5,387.5 C 75.6341,389.966 75.8007,392.633 75,395.5C 74.5026,392.854 74.3359,390.187 74.5,387.5 Z"/></g>
<g><path style="opacity:0.009" fill="#FFFFFF" d="M 435.5,387.5 C 436.634,389.966 436.801,392.633 436,395.5C 435.503,392.854 435.336,390.187 435.5,387.5 Z"/></g>
<g><path style="opacity:0.009" fill="#FFFFFF" d="M 75.5,398.5 C 76.6341,400.966 76.8007,403.633 76,406.5C 75.5026,403.854 75.3359,401.187 75.5,398.5 Z"/></g>
<g><path style="opacity:0.009" fill="#FFFFFF" d="M 434.5,398.5 C 435.634,400.966 435.801,403.633 435,406.5C 434.503,403.854 434.336,401.187 434.5,398.5 Z"/></g>
<g><path style="opacity:0.01" fill="#FFFFFF" d="M 76.5,409.5 C 77.6341,411.966 77.8007,414.633 77,417.5C 76.5026,414.854 76.3359,412.187 76.5,409.5 Z"/></g>
<g><path style="opacity:0.01" fill="#FFFFFF" d="M 433.5,409.5 C 434.634,411.966 434.801,414.633 434,417.5C 433.503,414.854 433.336,412.187 433.5,409.5 Z"/></g>
<g><path style="opacity:0.009" fill="#FFFFFF" d="M 77.5,420.5 C 78.6341,422.966 78.8007,425.633 78,428.5C 77.5026,425.854 77.3359,423.187 77.5,420.5 Z"/></g>
<g><path style="opacity:0.01" fill="#FFFFFF" d="M 432.5,420.5 C 433.634,422.966 433.801,425.633 433,428.5C 432.503,425.854 432.336,423.187 432.5,420.5 Z"/></g>
<g><path style="opacity:0.009" fill="#FFFFFF" d="M 78.5,430.5 C 79.5735,431.251 79.7401,432.251 79,433.5C 78.5172,432.552 78.3505,431.552 78.5,430.5 Z"/></g>
<g><path style="opacity:0.009" fill="#FFFFFF" d="M 431.5,433.5 C 431.351,432.448 431.517,431.448 432,430.5C 432.74,431.749 432.573,432.749 431.5,433.5 Z"/></g>
<g><path style="opacity:0.008" fill="#FFFFFF" d="M 430.5,433.5 C 430.833,433.5 431.167,433.5 431.5,433.5C 431.672,434.492 431.338,435.158 430.5,435.5C 430.5,434.833 430.5,434.167 430.5,433.5 Z"/></g>
<g><path style="opacity:0.006" fill="#FFFFFF" d="M 429.5,435.5 C 429.833,435.5 430.167,435.5 430.5,435.5C 430.672,436.492 430.338,437.158 429.5,437.5C 429.5,436.833 429.5,436.167 429.5,435.5 Z"/></g>
<g><path style="opacity:0.008" fill="#FFFFFF" d="M 428.5,437.5 C 428.833,437.5 429.167,437.5 429.5,437.5C 429.672,438.492 429.338,439.158 428.5,439.5C 428.5,438.833 428.5,438.167 428.5,437.5 Z"/></g>
<g><path style="opacity:0.008" fill="#FFFFFF" d="M 427.5,439.5 C 427.833,439.5 428.167,439.5 428.5,439.5C 428.315,440.17 427.981,440.17 427.5,439.5 Z"/></g>
<g><path style="opacity:0.012" fill="#FFFFFF" d="M 426.5,440.5 C 426.833,440.5 427.167,440.5 427.5,440.5C 427.315,441.17 426.981,441.17 426.5,440.5 Z"/></g>
<g><path style="opacity:0.016" fill="#FFFFFF" d="M 425.5,441.5 C 425.833,441.5 426.167,441.5 426.5,441.5C 426.315,442.17 425.981,442.17 425.5,441.5 Z"/></g>
<g><path style="opacity:0.016" fill="#FFFFFF" d="M 424.5,442.5 C 424.833,442.5 425.167,442.5 425.5,442.5C 425.315,443.17 424.981,443.17 424.5,442.5 Z"/></g>
<g><path style="opacity:0.012" fill="#FFFFFF" d="M 87.5,443.5 C 87.5,443.833 87.5,444.167 87.5,444.5C 86.8299,444.019 86.8299,443.685 87.5,443.5 Z"/></g>
<g><path style="opacity:0.012" fill="#FFFFFF" d="M 423.5,443.5 C 423.833,443.5 424.167,443.5 424.5,443.5C 424.315,444.17 423.981,444.17 423.5,443.5 Z"/></g>
<g><path style="opacity:0.008" fill="#FFFFFF" d="M 87.5,444.5 C 88.8333,445.167 88.8333,445.167 87.5,444.5 Z"/></g>
<g><path style="opacity:0.008" fill="#FFFFFF" d="M 423.5,444.5 C 422.833,445.167 422.833,445.167 423.5,444.5 Z"/></g>
<g><path style="opacity:0.012" fill="#FFFFFF" d="M 420.5,445.5 C 421.833,446.167 421.833,446.167 420.5,445.5 Z"/></g>
<g><path style="opacity:0.008" fill="#FFFFFF" d="M 418.5,447.5 C 418.5,447.167 418.5,446.833 418.5,446.5C 419.167,446.5 419.833,446.5 420.5,446.5C 420.158,447.338 419.492,447.672 418.5,447.5 Z"/></g>
<g><path style="opacity:0.01" fill="#FFFFFF" d="M 94.5,447.5 C 94.1034,448.525 93.4368,448.692 92.5,448C 93.0944,447.536 93.7611,447.369 94.5,447.5 Z"/></g>
<g><path style="opacity:0.01" fill="#FFFFFF" d="M 416.5,447.5 C 417.167,447.5 417.833,447.5 418.5,447.5C 417.833,448.833 417.167,448.833 416.5,447.5 Z"/></g>
<g><path style="opacity:0.012" fill="#FFFFFF" d="M 95.5,449.5 C 95.8966,448.475 96.5632,448.308 97.5,449C 96.9056,449.464 96.2389,449.631 95.5,449.5 Z"/></g>
<g><path style="opacity:0.01" fill="#FFFFFF" d="M 413.5,449.5 C 413.897,448.475 414.563,448.308 415.5,449C 414.906,449.464 414.239,449.631 413.5,449.5 Z"/></g>
<g><path style="opacity:0.009" fill="#FFFFFF" d="M 101.5,449.5 C 100.749,450.573 99.7494,450.74 98.5,450C 99.448,449.517 100.448,449.351 101.5,449.5 Z"/></g>
<g><path style="opacity:0.008" fill="#FFFFFF" d="M 409.5,449.5 C 410.552,449.351 411.552,449.517 412.5,450C 411.251,450.74 410.251,450.573 409.5,449.5 Z"/></g>
<g><path style="opacity:0.009" fill="#FFFFFF" d="M 105.5,450.5 C 105.5,450.833 105.5,451.167 105.5,451.5C 101.5,451.167 101.5,450.833 105.5,450.5 Z"/></g>
<g><path style="opacity:0.009" fill="#FFFFFF" d="M 405.5,451.5 C 405.5,451.167 405.5,450.833 405.5,450.5C 409.5,450.833 409.5,451.167 405.5,451.5 Z"/></g>
<g><path style="opacity:0.009" fill="#FFFFFF" d="M 105.5,451.5 C 106.552,451.351 107.552,451.517 108.5,452C 107.251,452.74 106.251,452.573 105.5,451.5 Z"/></g>
<g><path style="opacity:0.009" fill="#FFFFFF" d="M 402.5,451.5 C 403.5,451.5 404.5,451.5 405.5,451.5C 404.5,452.833 403.5,452.833 402.5,451.5 Z"/></g>
<g><path style="opacity:0.008" fill="#FFFFFF" d="M 112.5,452.5 C 111.749,453.573 110.749,453.74 109.5,453C 110.448,452.517 111.448,452.351 112.5,452.5 Z"/></g>
<g><path style="opacity:0.008" fill="#FFFFFF" d="M 398.5,452.5 C 399.552,452.351 400.552,452.517 401.5,453C 400.251,453.74 399.251,453.573 398.5,452.5 Z"/></g>
<g><path style="opacity:0.01" fill="#FFFFFF" d="M 113.5,454.5 C 113.897,453.475 114.563,453.308 115.5,454C 114.906,454.464 114.239,454.631 113.5,454.5 Z"/></g>
<g><path style="opacity:0.012" fill="#FFFFFF" d="M 395.5,454.5 C 395.897,453.475 396.563,453.308 397.5,454C 396.906,454.464 396.239,454.631 395.5,454.5 Z"/></g>
<g><path style="opacity:0.009" fill="#FFFFFF" d="M 119.5,454.5 C 118.749,455.573 117.749,455.74 116.5,455C 117.448,454.517 118.448,454.351 119.5,454.5 Z"/></g>
<g><path style="opacity:0.008" fill="#FFFFFF" d="M 391.5,454.5 C 392.552,454.351 393.552,454.517 394.5,455C 393.251,455.74 392.251,455.573 391.5,454.5 Z"/></g>
<g><path style="opacity:0.009" fill="#FFFFFF" d="M 123.5,455.5 C 123.5,455.833 123.5,456.167 123.5,456.5C 119.5,456.167 119.5,455.833 123.5,455.5 Z"/></g>
<g><path style="opacity:0.012" fill="#FFFFFF" d="M 388.5,456.5 C 388.897,455.475 389.563,455.308 390.5,456C 389.906,456.464 389.239,456.631 388.5,456.5 Z"/></g>
<g><path style="opacity:0.009" fill="#FFFFFF" d="M 123.5,456.5 C 124.552,456.351 125.552,456.517 126.5,457C 125.251,457.74 124.251,457.573 123.5,456.5 Z"/></g>
<g><path style="opacity:0.009" fill="#FFFFFF" d="M 384.5,457.5 C 385.251,456.427 386.251,456.26 387.5,457C 386.552,457.483 385.552,457.649 384.5,457.5 Z"/></g>
<g><path style="opacity:0.008" fill="#FFFFFF" d="M 130.5,457.5 C 129.749,458.573 128.749,458.74 127.5,458C 128.448,457.517 129.448,457.351 130.5,457.5 Z"/></g>
<g><path style="opacity:0.009" fill="#FFFFFF" d="M 380.5,457.5 C 381.552,457.351 382.552,457.517 383.5,458C 382.251,458.74 381.251,458.573 380.5,457.5 Z"/></g>
<g><path style="opacity:0.01" fill="#FFFFFF" d="M 131.5,459.5 C 131.897,458.475 132.563,458.308 133.5,459C 132.906,459.464 132.239,459.631 131.5,459.5 Z"/></g>
<g><path style="opacity:0.012" fill="#FFFFFF" d="M 377.5,459.5 C 377.897,458.475 378.563,458.308 379.5,459C 378.906,459.464 378.239,459.631 377.5,459.5 Z"/></g>
<g><path style="opacity:0.009" fill="#FFFFFF" d="M 137.5,459.5 C 136.749,460.573 135.749,460.74 134.5,460C 135.448,459.517 136.448,459.351 137.5,459.5 Z"/></g>
<g><path style="opacity:0.009" fill="#FFFFFF" d="M 373.5,459.5 C 374.552,459.351 375.552,459.517 376.5,460C 375.251,460.74 374.251,460.573 373.5,459.5 Z"/></g>
<g><path style="opacity:0.009" fill="#FFFFFF" d="M 141.5,460.5 C 141.5,460.833 141.5,461.167 141.5,461.5C 137.5,461.167 137.5,460.833 141.5,460.5 Z"/></g>
<g><path style="opacity:0.009" fill="#FFFFFF" d="M 369.5,461.5 C 369.5,461.167 369.5,460.833 369.5,460.5C 373.5,460.833 373.5,461.167 369.5,461.5 Z"/></g>
<g><path style="opacity:0.009" fill="#FFFFFF" d="M 141.5,461.5 C 142.552,461.351 143.552,461.517 144.5,462C 143.251,462.74 142.251,462.573 141.5,461.5 Z"/></g>
<g><path style="opacity:0.009" fill="#FFFFFF" d="M 369.5,461.5 C 368.749,462.573 367.749,462.74 366.5,462C 367.448,461.517 368.448,461.351 369.5,461.5 Z"/></g>
<g><path style="opacity:0.008" fill="#FFFFFF" d="M 148.5,462.5 C 147.749,463.573 146.749,463.74 145.5,463C 146.448,462.517 147.448,462.351 148.5,462.5 Z"/></g>
<g><path style="opacity:0.008" fill="#FFFFFF" d="M 362.5,462.5 C 363.552,462.351 364.552,462.517 365.5,463C 364.251,463.74 363.251,463.573 362.5,462.5 Z"/></g>
<g><path style="opacity:0.01" fill="#FFFFFF" d="M 149.5,464.5 C 149.897,463.475 150.563,463.308 151.5,464C 150.906,464.464 150.239,464.631 149.5,464.5 Z"/></g>
<g><path style="opacity:0.012" fill="#FFFFFF" d="M 359.5,464.5 C 359.897,463.475 360.563,463.308 361.5,464C 360.906,464.464 360.239,464.631 359.5,464.5 Z"/></g>
<g><path style="opacity:0.009" fill="#FFFFFF" d="M 155.5,464.5 C 154.749,465.573 153.749,465.74 152.5,465C 153.448,464.517 154.448,464.351 155.5,464.5 Z"/></g>
<g><path style="opacity:0.009" fill="#FFFFFF" d="M 355.5,464.5 C 356.552,464.351 357.552,464.517 358.5,465C 357.251,465.74 356.251,465.573 355.5,464.5 Z"/></g>
<g><path style="opacity:0.009" fill="#FFFFFF" d="M 159.5,465.5 C 159.5,465.833 159.5,466.167 159.5,466.5C 155.5,466.167 155.5,465.833 159.5,465.5 Z"/></g>
<g><path style="opacity:0.008" fill="#FFFFFF" d="M 351.5,465.5 C 352.552,465.351 353.552,465.517 354.5,466C 353.251,466.74 352.251,466.573 351.5,465.5 Z"/></g>
<g><path style="opacity:0.009" fill="#FFFFFF" d="M 159.5,466.5 C 160.552,466.351 161.552,466.517 162.5,467C 161.251,467.74 160.251,467.573 159.5,466.5 Z"/></g>
<g><path style="opacity:0.012" fill="#FFFFFF" d="M 348.5,467.5 C 348.897,466.475 349.563,466.308 350.5,467C 349.906,467.464 349.239,467.631 348.5,467.5 Z"/></g>
<g><path style="opacity:0.008" fill="#FFFFFF" d="M 166.5,467.5 C 165.749,468.573 164.749,468.74 163.5,468C 164.448,467.517 165.448,467.351 166.5,467.5 Z"/></g>
<g><path style="opacity:0.008" fill="#FFFFFF" d="M 344.5,467.5 C 345.552,467.351 346.552,467.517 347.5,468C 346.251,468.74 345.251,468.573 344.5,467.5 Z"/></g>
<g><path style="opacity:0.01" fill="#FFFFFF" d="M 167.5,469.5 C 167.897,468.475 168.563,468.308 169.5,469C 168.906,469.464 168.239,469.631 167.5,469.5 Z"/></g>
<g><path style="opacity:0.012" fill="#FFFFFF" d="M 341.5,469.5 C 341.897,468.475 342.563,468.308 343.5,469C 342.906,469.464 342.239,469.631 341.5,469.5 Z"/></g>
<g><path style="opacity:0.009" fill="#FFFFFF" d="M 173.5,469.5 C 172.749,470.573 171.749,470.74 170.5,470C 171.448,469.517 172.448,469.351 173.5,469.5 Z"/></g>
<g><path style="opacity:0.009" fill="#FFFFFF" d="M 337.5,469.5 C 338.552,469.351 339.552,469.517 340.5,470C 339.251,470.74 338.251,470.573 337.5,469.5 Z"/></g>
<g><path style="opacity:0.009" fill="#FFFFFF" d="M 177.5,470.5 C 177.5,470.833 177.5,471.167 177.5,471.5C 173.5,471.167 173.5,470.833 177.5,470.5 Z"/></g>
<g><path style="opacity:0.008" fill="#FFFFFF" d="M 333.5,470.5 C 334.552,470.351 335.552,470.517 336.5,471C 335.251,471.74 334.251,471.573 333.5,470.5 Z"/></g>
<g><path style="opacity:0.009" fill="#FFFFFF" d="M 177.5,471.5 C 178.552,471.351 179.552,471.517 180.5,472C 179.251,472.74 178.251,472.573 177.5,471.5 Z"/></g>
<g><path style="opacity:0.01" fill="#FFFFFF" d="M 330.5,472.5 C 330.897,471.475 331.563,471.308 332.5,472C 331.906,472.464 331.239,472.631 330.5,472.5 Z"/></g>
<g><path style="opacity:0.008" fill="#FFFFFF" d="M 184.5,472.5 C 183.749,473.573 182.749,473.74 181.5,473C 182.448,472.517 183.448,472.351 184.5,472.5 Z"/></g>
<g><path style="opacity:0.008" fill="#FFFFFF" d="M 326.5,472.5 C 327.552,472.351 328.552,472.517 329.5,473C 328.251,473.74 327.251,473.573 326.5,472.5 Z"/></g>
<g><path style="opacity:0.01" fill="#FFFFFF" d="M 185.5,474.5 C 185.897,473.475 186.563,473.308 187.5,474C 186.906,474.464 186.239,474.631 185.5,474.5 Z"/></g>
<g><path style="opacity:0.012" fill="#FFFFFF" d="M 323.5,474.5 C 323.897,473.475 324.563,473.308 325.5,474C 324.906,474.464 324.239,474.631 323.5,474.5 Z"/></g>
<g><path style="opacity:0.009" fill="#FFFFFF" d="M 191.5,474.5 C 190.749,475.573 189.749,475.74 188.5,475C 189.448,474.517 190.448,474.351 191.5,474.5 Z"/></g>
<g><path style="opacity:0.009" fill="#FFFFFF" d="M 319.5,475.5 C 320.251,474.427 321.251,474.26 322.5,475C 321.552,475.483 320.552,475.649 319.5,475.5 Z"/></g>
<g><path style="opacity:0.009" fill="#FFFFFF" d="M 195.5,475.5 C 195.5,475.833 195.5,476.167 195.5,476.5C 191.5,476.167 191.5,475.833 195.5,475.5 Z"/></g>
<g><path style="opacity:0.009" fill="#FFFFFF" d="M 315.5,475.5 C 316.552,475.351 317.552,475.517 318.5,476C 317.251,476.74 316.251,476.573 315.5,475.5 Z"/></g>
<g><path style="opacity:0.009" fill="#FFFFFF" d="M 195.5,476.5 C 196.552,476.351 197.552,476.517 198.5,477C 197.251,477.74 196.251,477.573 195.5,476.5 Z"/></g>
<g><path style="opacity:0.012" fill="#FFFFFF" d="M 312.5,477.5 C 312.897,476.475 313.563,476.308 314.5,477C 313.906,477.464 313.239,477.631 312.5,477.5 Z"/></g>
<g><path style="opacity:0.008" fill="#FFFFFF" d="M 202.5,477.5 C 201.749,478.573 200.749,478.74 199.5,478C 200.448,477.517 201.448,477.351 202.5,477.5 Z"/></g>
<g><path style="opacity:0.008" fill="#FFFFFF" d="M 308.5,477.5 C 309.552,477.351 310.552,477.517 311.5,478C 310.251,478.74 309.251,478.573 308.5,477.5 Z"/></g>
<g><path style="opacity:0.01" fill="#FFFFFF" d="M 203.5,479.5 C 203.897,478.475 204.563,478.308 205.5,479C 204.906,479.464 204.239,479.631 203.5,479.5 Z"/></g>
<g><path style="opacity:0.009" fill="#FFFFFF" d="M 304.5,479.5 C 304.5,479.167 304.5,478.833 304.5,478.5C 308.5,478.833 308.5,479.167 304.5,479.5 Z"/></g>
<g><path style="opacity:0.009" fill="#FFFFFF" d="M 209.5,479.5 C 208.749,480.573 207.749,480.74 206.5,480C 207.448,479.517 208.448,479.351 209.5,479.5 Z"/></g>
<g><path style="opacity:0.009" fill="#FFFFFF" d="M 304.5,479.5 C 303.749,480.573 302.749,480.74 301.5,480C 302.448,479.517 303.448,479.351 304.5,479.5 Z"/></g>
<g><path style="opacity:0.009" fill="#FFFFFF" d="M 213.5,480.5 C 213.5,480.833 213.5,481.167 213.5,481.5C 209.5,481.167 209.5,480.833 213.5,480.5 Z"/></g>
<g><path style="opacity:0.008" fill="#FFFFFF" d="M 297.5,480.5 C 298.552,480.351 299.552,480.517 300.5,481C 299.251,481.74 298.251,481.573 297.5,480.5 Z"/></g>
<g><path style="opacity:0.009" fill="#FFFFFF" d="M 213.5,481.5 C 214.552,481.351 215.552,481.517 216.5,482C 215.251,482.74 214.251,482.573 213.5,481.5 Z"/></g>
<g><path style="opacity:0.012" fill="#FFFFFF" d="M 294.5,482.5 C 294.897,481.475 295.563,481.308 296.5,482C 295.906,482.464 295.239,482.631 294.5,482.5 Z"/></g>
<g><path style="opacity:0.008" fill="#FFFFFF" d="M 220.5,482.5 C 219.749,483.573 218.749,483.74 217.5,483C 218.448,482.517 219.448,482.351 220.5,482.5 Z"/></g>
<g><path style="opacity:0.009" fill="#FFFFFF" d="M 290.5,482.5 C 291.552,482.351 292.552,482.517 293.5,483C 292.251,483.74 291.251,483.573 290.5,482.5 Z"/></g>
<g><path style="opacity:0.01" fill="#FFFFFF" d="M 221.5,484.5 C 221.897,483.475 222.563,483.308 223.5,484C 222.906,484.464 222.239,484.631 221.5,484.5 Z"/></g>
<g><path style="opacity:0.009" fill="#FFFFFF" d="M 286.5,483.5 C 287.552,483.351 288.552,483.517 289.5,484C 288.251,484.74 287.251,484.573 286.5,483.5 Z"/></g>
<g><path style="opacity:0.009" fill="#FFFFFF" d="M 227.5,484.5 C 226.749,485.573 225.749,485.74 224.5,485C 225.448,484.517 226.448,484.351 227.5,484.5 Z"/></g>
<g><path style="opacity:0.012" fill="#FFFFFF" d="M 283.5,485.5 C 283.897,484.475 284.563,484.308 285.5,485C 284.906,485.464 284.239,485.631 283.5,485.5 Z"/></g>
<g><path style="opacity:0.009" fill="#FFFFFF" d="M 231.5,485.5 C 231.5,485.833 231.5,486.167 231.5,486.5C 227.5,486.167 227.5,485.833 231.5,485.5 Z"/></g>
<g><path style="opacity:0.008" fill="#FFFFFF" d="M 279.5,485.5 C 280.552,485.351 281.552,485.517 282.5,486C 281.251,486.74 280.251,486.573 279.5,485.5 Z"/></g>
<g><path style="opacity:0.009" fill="#FFFFFF" d="M 231.5,486.5 C 232.552,486.351 233.552,486.517 234.5,487C 233.251,487.74 232.251,487.573 231.5,486.5 Z"/></g>
<g><path style="opacity:0.012" fill="#FFFFFF" d="M 276.5,487.5 C 276.897,486.475 277.563,486.308 278.5,487C 277.906,487.464 277.239,487.631 276.5,487.5 Z"/></g>
<g><path style="opacity:0.008" fill="#FFFFFF" d="M 238.5,487.5 C 237.749,488.573 236.749,488.74 235.5,488C 236.448,487.517 237.448,487.351 238.5,487.5 Z"/></g>
<g><path style="opacity:0.009" fill="#FFFFFF" d="M 272.5,487.5 C 273.552,487.351 274.552,487.517 275.5,488C 274.251,488.74 273.251,488.573 272.5,487.5 Z"/></g>
<g><path style="opacity:0.01" fill="#FFFFFF" d="M 239.5,489.5 C 239.897,488.475 240.563,488.308 241.5,489C 240.906,489.464 240.239,489.631 239.5,489.5 Z"/></g>
<g><path style="opacity:0.008" fill="#FFFFFF" d="M 268.5,488.5 C 269.552,488.351 270.552,488.517 271.5,489C 270.251,489.74 269.251,489.573 268.5,488.5 Z"/></g>
<g><path style="opacity:0.009" fill="#FFFFFF" d="M 245.5,489.5 C 244.749,490.573 243.749,490.74 242.5,490C 243.448,489.517 244.448,489.351 245.5,489.5 Z"/></g>
<g><path style="opacity:0.01" fill="#FFFFFF" d="M 265.5,490.5 C 265.897,489.475 266.563,489.308 267.5,490C 266.906,490.464 266.239,490.631 265.5,490.5 Z"/></g>
<g><path style="opacity:0.009" fill="#FFFFFF" d="M 249.5,490.5 C 249.5,490.833 249.5,491.167 249.5,491.5C 245.5,491.167 245.5,490.833 249.5,490.5 Z"/></g>
<g><path style="opacity:0.008" fill="#FFFFFF" d="M 261.5,490.5 C 262.552,490.351 263.552,490.517 264.5,491C 263.251,491.74 262.251,491.573 261.5,490.5 Z"/></g>
<g><path style="opacity:0.01" fill="#FFFFFF" d="M 249.5,491.5 C 253.182,491.335 256.848,491.501 260.5,492C 256.642,492.81 252.976,492.643 249.5,491.5 Z"/></g>
</svg>
