<?xml version="1.0" encoding="UTF-8"?>
<!DOCTYPE svg PUBLIC "-//W3C//DTD SVG 1.1//EN" "http://www.w3.org/Graphics/SVG/1.1/DTD/svg11.dtd">
<svg xmlns="http://www.w3.org/2000/svg" version="1.1" width="512px" height="512px" style="shape-rendering:geometricPrecision; text-rendering:geometricPrecision; image-rendering:optimizeQuality; fill-rule:evenodd; clip-rule:evenodd" xmlns:xlink="http://www.w3.org/1999/xlink">
<g><path style="opacity:0.949" fill="#E7A11B" d="M 165.5,39.5 C 205.708,36.6869 245.041,41.1869 283.5,53C 303.008,59.3311 319.842,69.8311 334,84.5C 338.054,89.9422 341.054,95.9422 343,102.5C 343.667,184.5 343.667,266.5 343,348.5C 340.089,352.277 336.256,353.444 331.5,352C 330,351.167 328.833,350 328,348.5C 327.667,334.167 327.333,319.833 327,305.5C 310.204,318.815 291.371,328.315 270.5,334C 232.66,343.418 194.327,346.085 155.5,342C 125.816,339.247 97.8164,330.913 71.5,317C 66.0659,313.532 60.8992,309.699 56,305.5C 55.0878,322.872 55.4212,340.206 57,357.5C 60.2556,366.094 65.7556,372.927 73.5,378C 94.2578,391.256 116.924,399.589 141.5,403C 170.111,407.041 198.777,408.041 227.5,406C 231.327,409.308 232.494,413.474 231,418.5C 229.786,420.049 228.286,421.215 226.5,422C 184.391,426.789 143.058,423.122 102.5,411C 81.8829,404.614 64.0496,393.781 49,378.5C 44.9456,373.058 41.9456,367.058 40,360.5C 39.3333,274.5 39.3333,188.5 40,102.5C 43.3641,91.4655 49.5307,82.2988 58.5,75C 78.2651,60.5126 100.265,50.8459 124.5,46C 138.209,43.1584 151.876,40.9918 165.5,39.5 Z M 188.5,55.5 C 224.524,55.0031 259.191,61.5031 292.5,75C 302.778,79.9461 311.944,86.4461 320,94.5C 330.31,109.867 328.143,123.367 313.5,135C 298.694,145.723 282.361,153.39 264.5,158C 215.836,170.665 167.169,170.665 118.5,158C 97.1694,153.254 78.6694,143.421 63,128.5C 52.6903,113.133 54.857,99.6334 69.5,88C 92.9442,71.8472 118.944,62.1805 147.5,59C 161.286,57.4098 174.953,56.2431 188.5,55.5 Z M 55.5,145.5 C 73.6452,159.571 93.9786,169.404 116.5,175C 153.089,183.473 190.089,185.806 227.5,182C 257.265,179.522 285.265,171.189 311.5,157C 316.934,153.532 322.101,149.699 327,145.5C 327.912,162.872 327.579,180.206 326,197.5C 321.304,208.198 313.804,216.365 303.5,222C 279.752,234.692 254.419,242.359 227.5,245C 188.274,249.482 149.607,246.482 111.5,236C 92.8131,231.079 76.6464,221.912 63,208.5C 58.7446,203.652 56.4112,197.985 56,191.5C 55.5001,176.17 55.3334,160.837 55.5,145.5 Z M 55.5,225.5 C 73.6452,239.571 93.9786,249.404 116.5,255C 153.089,263.473 190.089,265.806 227.5,262C 257.265,259.522 285.265,251.189 311.5,237C 316.934,233.532 322.101,229.699 327,225.5C 327.912,242.872 327.579,260.206 326,277.5C 321.304,288.198 313.804,296.365 303.5,302C 279.752,314.692 254.419,322.359 227.5,325C 188.274,329.482 149.607,326.482 111.5,316C 92.8131,311.079 76.6464,301.912 63,288.5C 58.7446,283.652 56.4112,277.985 56,271.5C 55.5001,256.17 55.3334,240.837 55.5,225.5 Z"/></g>
<g><path style="opacity:0.929" fill="#FFFFFF" d="M 86.5,183.5 C 99.3202,182.153 104.82,187.819 103,200.5C 99.3449,207.07 93.8449,209.237 86.5,207C 79.9298,203.345 77.7632,197.845 80,190.5C 81.6941,187.642 83.8607,185.309 86.5,183.5 Z"/></g>
<g><path style="opacity:0.929" fill="#FFFFFF" d="M 86.5,263.5 C 99.3202,262.153 104.82,267.819 103,280.5C 99.3449,287.07 93.8449,289.237 86.5,287C 79.9298,283.345 77.7632,277.845 80,270.5C 81.6941,267.642 83.8607,265.309 86.5,263.5 Z"/></g>
<g><path style="opacity:0.929" fill="#FFFFFF" d="M 86.5,343.5 C 99.3202,342.153 104.82,347.819 103,360.5C 99.3449,367.07 93.8449,369.237 86.5,367C 79.9298,363.345 77.7632,357.845 80,350.5C 81.6941,347.642 83.8607,345.309 86.5,343.5 Z"/></g>
<g><path style="opacity:0.928" fill="#FFFFFF" d="M 271.5,359.5 C 297.961,357.268 311.128,369.268 311,395.5C 309.471,398.516 306.971,399.849 303.5,399.5C 301.074,399.596 298.907,398.93 297,397.5C 295.583,392.408 293.916,387.408 292,382.5C 285.749,375.989 278.582,374.823 270.5,379C 262.5,387.333 262.5,395.667 270.5,404C 279.655,406.105 288.655,408.771 297.5,412C 312.458,424.534 315.625,439.7 307,457.5C 295.307,472.031 280.807,475.531 263.5,468C 249.99,459.793 245.323,448.126 249.5,433C 253.781,430.891 257.948,431.058 262,433.5C 263.417,438.592 265.084,443.592 267,448.5C 273.251,455.011 280.418,456.177 288.5,452C 296.5,443.667 296.5,435.333 288.5,427C 279.345,424.895 270.345,422.229 261.5,419C 246.542,406.466 243.375,391.3 252,373.5C 257.005,366.649 263.505,361.982 271.5,359.5 Z"/></g>
<g><path style="opacity:0.953" fill="#FFFFFF" d="M 351.5,359.5 C 371.464,356.717 384.631,364.717 391,383.5C 391.667,404.833 391.667,426.167 391,447.5C 390.167,450 389.333,452.5 388.5,455C 390.089,457.512 391.422,460.178 392.5,463C 392.058,468.608 389.058,471.775 383.5,472.5C 380.455,471.56 377.621,470.227 375,468.5C 360.115,474.372 346.782,472.039 335,461.5C 331.612,457.391 329.279,452.725 328,447.5C 327.333,426.167 327.333,404.833 328,383.5C 331.349,370.985 339.182,362.985 351.5,359.5 Z M 354.5,376.5 C 366.308,374.817 373.141,379.817 375,391.5C 375.667,407.5 375.667,423.5 375,439.5C 374.667,440.167 374.333,440.833 374,441.5C 370.183,436.675 365.516,433.008 360,430.5C 351.497,432.688 349.164,437.688 353,445.5C 355.833,448.333 358.667,451.167 361.5,454C 351.206,454.716 345.373,449.883 344,439.5C 343.333,423.5 343.333,407.5 344,391.5C 344.626,384.391 348.126,379.391 354.5,376.5 Z"/></g>
<g><path style="opacity:0.989" fill="#FFFFFF" d="M 411.5,359.5 C 414.187,359.336 416.854,359.503 419.5,360C 421.333,360.5 422.5,361.667 423,363.5C 423.5,394.165 423.667,424.832 423.5,455.5C 438.17,455.333 452.837,455.5 467.5,456C 469.333,456.5 470.5,457.667 471,459.5C 471.667,462.167 471.667,464.833 471,467.5C 470.5,469.333 469.333,470.5 467.5,471C 448.833,471.667 430.167,471.667 411.5,471C 410.584,470.626 409.75,470.126 409,469.5C 407.347,434.252 407.014,398.918 408,363.5C 408.69,361.65 409.856,360.316 411.5,359.5 Z"/></g>
</svg>
